<svg width="214" height="112" viewBox="0 0 214 112" fill="none" xmlns="http://www.w3.org/2000/svg">
<g opacity="0.2">
<path d="M77.8651 56.9927C77.8456 56.856 77.7968 56.7271 77.7186 56.606C77.6444 56.4849 77.5468 56.3814 77.4257 56.2954C77.3085 56.2056 77.1737 56.1353 77.0214 56.0845C76.8729 56.0337 76.7167 56.0083 76.5526 56.0083C76.4042 56.0083 76.2655 56.024 76.1366 56.0552C76.0077 56.0865 75.8944 56.1353 75.7968 56.2017C75.703 56.2642 75.6268 56.3462 75.5682 56.4478C75.5135 56.5493 75.4862 56.6704 75.4862 56.8111C75.4862 56.9868 75.5233 57.1275 75.5975 57.2329C75.6757 57.3345 75.7733 57.4185 75.8905 57.4849C76.0116 57.5513 76.1444 57.604 76.2889 57.6431C76.4335 57.6822 76.5741 57.7251 76.7108 57.772L78.3221 58.3111C78.5448 58.3892 78.7538 58.4966 78.9491 58.6333C79.1444 58.7701 79.3124 58.9361 79.453 59.1314C79.5975 59.3267 79.7108 59.5513 79.7928 59.8052C79.8749 60.0591 79.9159 60.3443 79.9159 60.6607C79.9159 61.0904 79.8358 61.4829 79.6757 61.8384C79.5194 62.1939 79.2987 62.4986 79.0135 62.7525C78.7284 63.0064 78.3866 63.2036 77.9882 63.3443C77.5897 63.4849 77.1483 63.5552 76.6639 63.5552C76.3241 63.5552 76.0018 63.5161 75.6971 63.438C75.3964 63.3638 75.121 63.2544 74.871 63.1099C74.621 62.9654 74.4022 62.7935 74.2147 62.5943C74.0272 62.3911 73.8807 62.1626 73.7753 61.9087H73.1718V60.1451H75.2928V60.5083C75.2928 60.6841 75.3202 60.8462 75.3749 60.9947C75.4335 61.1431 75.5194 61.272 75.6327 61.3814C75.746 61.4908 75.8885 61.5767 76.0604 61.6392C76.2323 61.6978 76.4335 61.7271 76.6639 61.7271C77.0155 61.7271 77.2831 61.647 77.4667 61.4868C77.6503 61.3228 77.7421 61.0962 77.7421 60.8072C77.7421 60.6587 77.7089 60.5357 77.6425 60.438C77.58 60.3365 77.4979 60.2525 77.3964 60.1861C77.2948 60.1158 77.1815 60.0572 77.0565 60.0103C76.9315 59.9634 76.8085 59.9204 76.6874 59.8814L75.3456 59.4478C75.0917 59.3697 74.8456 59.2603 74.6073 59.1197C74.3729 58.979 74.1639 58.8033 73.9803 58.5923C73.8007 58.3814 73.6561 58.1353 73.5468 57.854C73.4413 57.5689 73.3885 57.2447 73.3885 56.8814C73.3885 56.4595 73.4667 56.0845 73.6229 55.7564C73.7792 55.4243 73.9979 55.1451 74.2792 54.9185C74.5604 54.6919 74.8944 54.5201 75.2811 54.4029C75.6678 54.2857 76.0917 54.2271 76.5526 54.2271C76.9159 54.2271 77.2518 54.2701 77.5604 54.356C77.869 54.438 78.1444 54.5493 78.3866 54.69C78.6327 54.8306 78.8397 54.9927 79.0077 55.1763C79.1796 55.356 79.3104 55.5435 79.4003 55.7388H79.9862V57.5083H77.8651V56.9927ZM80.8944 54.4908H84.6971V56.0962H83.7596V61.7681H84.6971V63.3736H80.8944V61.7681H81.8143V56.0962H80.8944V54.4908ZM87.1639 61.7681H88.0839V56.0435H87.0057V57.1919H85.0956V54.4908H93.1757V57.1919H91.2538V56.0435H90.0292V61.7681H90.9667V63.3736H87.1639V61.7681ZM93.7147 60.7427V59.1372H97.3885V60.7427H93.7147ZM104.349 57.1919C104.131 56.8794 103.933 56.6587 103.758 56.5298C103.582 56.397 103.392 56.3033 103.189 56.2486C102.986 56.19 102.773 56.1607 102.551 56.1607C102.223 56.1607 101.918 56.2349 101.637 56.3833C101.355 56.5279 101.111 56.7271 100.904 56.981C100.701 57.231 100.541 57.524 100.424 57.8599C100.307 58.1919 100.248 58.5454 100.248 58.9204C100.248 59.2993 100.305 59.6568 100.418 59.9927C100.535 60.3247 100.695 60.6158 100.898 60.8658C101.101 61.1158 101.344 61.315 101.625 61.4634C101.906 61.6079 102.215 61.6802 102.551 61.6802C102.785 61.6802 103.004 61.6431 103.207 61.5689C103.41 61.4908 103.594 61.3892 103.758 61.2642C103.926 61.1392 104.072 60.9966 104.197 60.8365C104.322 60.6724 104.42 60.5025 104.49 60.3267L106.377 60.854C106.256 61.2368 106.078 61.5923 105.844 61.9204C105.609 62.2447 105.326 62.5259 104.994 62.7642C104.666 63.0025 104.295 63.19 103.881 63.3267C103.471 63.4634 103.027 63.5318 102.551 63.5318C102.148 63.5318 101.764 63.4771 101.396 63.3677C101.029 63.2583 100.685 63.104 100.365 62.9048C100.049 62.7056 99.7596 62.4654 99.4979 62.1841C99.2401 61.9029 99.0194 61.5923 98.8358 61.2525C98.6522 60.9087 98.5096 60.5415 98.4081 60.1509C98.3065 59.7564 98.2557 59.3462 98.2557 58.9204C98.2557 58.2837 98.3671 57.688 98.5897 57.1333C98.8124 56.5747 99.1171 56.0884 99.5038 55.6743C99.8905 55.2564 100.344 54.9283 100.863 54.69C101.387 54.4478 101.949 54.3267 102.551 54.3267C103.031 54.3267 103.435 54.3872 103.764 54.5083C104.092 54.6255 104.453 54.8599 104.848 55.2115H106.16V57.1919H104.349ZM107.396 60.315C107.396 59.8736 107.476 59.4595 107.637 59.0728C107.797 58.6861 108.019 58.3482 108.305 58.0591C108.59 57.7701 108.93 57.5415 109.324 57.3736C109.719 57.2056 110.152 57.1216 110.625 57.1216C111.098 57.1216 111.531 57.2056 111.926 57.3736C112.324 57.5415 112.666 57.7701 112.951 58.0591C113.236 58.3482 113.457 58.6861 113.613 59.0728C113.773 59.4595 113.853 59.8736 113.853 60.315C113.853 60.7564 113.775 61.1724 113.619 61.563C113.467 61.9497 113.248 62.2896 112.963 62.5826C112.682 62.8716 112.342 63.1001 111.943 63.2681C111.549 63.4361 111.109 63.5201 110.625 63.5201C110.137 63.5201 109.693 63.4361 109.295 63.2681C108.9 63.1001 108.562 62.8716 108.281 62.5826C108 62.2935 107.781 61.9556 107.625 61.5689C107.473 61.1783 107.396 60.7603 107.396 60.315ZM109.148 60.315C109.148 60.5454 109.187 60.7583 109.266 60.9536C109.344 61.1451 109.449 61.3111 109.582 61.4517C109.719 61.5923 109.875 61.7017 110.051 61.7798C110.23 61.8579 110.422 61.897 110.625 61.897C110.832 61.897 111.023 61.8599 111.199 61.7857C111.379 61.7076 111.533 61.5982 111.662 61.4576C111.795 61.3169 111.898 61.1509 111.973 60.9595C112.047 60.7642 112.084 60.5493 112.084 60.315C112.084 60.0728 112.047 59.854 111.973 59.6587C111.898 59.4634 111.795 59.2974 111.662 59.1607C111.533 59.024 111.379 58.9204 111.199 58.8501C111.023 58.7759 110.832 58.7408 110.625 58.7447C110.422 58.7408 110.23 58.7759 110.051 58.8501C109.875 58.9204 109.719 59.024 109.582 59.1607C109.449 59.2974 109.344 59.4634 109.266 59.6587C109.187 59.854 109.148 60.0728 109.148 60.315ZM114.756 57.3033H117.533V57.8306C117.783 57.6314 118.064 57.4732 118.377 57.356C118.689 57.2388 119.012 57.1802 119.344 57.1802C119.805 57.1802 120.199 57.2622 120.527 57.4263C120.859 57.5865 121.119 57.8326 121.307 58.1646C121.435 58.0201 121.58 57.8892 121.74 57.772C121.904 57.6509 122.078 57.5474 122.262 57.4615C122.445 57.3716 122.637 57.3033 122.836 57.2564C123.039 57.2056 123.246 57.1802 123.457 57.1802C124.199 57.1802 124.769 57.3853 125.168 57.7954C125.566 58.2056 125.766 58.8052 125.766 59.5943V61.7681H126.627V63.3736H123.855V59.8931C123.855 59.5493 123.766 59.2798 123.586 59.0845C123.41 58.8892 123.164 58.7915 122.848 58.7915C122.629 58.7915 122.422 58.8443 122.226 58.9497C122.035 59.0513 121.844 59.229 121.652 59.4829C121.656 59.5259 121.658 59.5708 121.658 59.6177C121.658 59.6607 121.658 59.7056 121.658 59.7525V61.7681H122.537V63.3736H119.766V59.8814C119.766 59.7173 119.74 59.5689 119.689 59.4361C119.639 59.3033 119.568 59.19 119.478 59.0962C119.389 59.0025 119.281 58.9302 119.156 58.8794C119.035 58.8247 118.9 58.7954 118.752 58.7915C118.557 58.7876 118.353 58.8306 118.142 58.9204C117.935 59.0103 117.736 59.1763 117.545 59.4185V61.7681H118.517V63.3736H114.744V61.7681H115.646V58.9087H114.756V57.3033ZM127.605 57.3033H130.254V57.3911C130.441 57.3091 130.633 57.2447 130.828 57.1978C131.023 57.147 131.224 57.1216 131.432 57.1216C131.877 57.1216 132.291 57.2056 132.674 57.3736C133.057 57.5415 133.389 57.7701 133.67 58.0591C133.951 58.3482 134.17 58.6861 134.326 59.0728C134.486 59.4595 134.566 59.8697 134.566 60.3033C134.566 60.7408 134.488 61.1529 134.332 61.5396C134.18 61.9263 133.965 62.2642 133.687 62.5533C133.41 62.8384 133.078 63.065 132.691 63.2329C132.308 63.397 131.889 63.479 131.432 63.479C131.174 63.479 130.933 63.4536 130.711 63.4029C130.488 63.356 130.273 63.2876 130.066 63.1978V64.5279H131.226V66.1333H127.266V64.5279H128.262V58.9087H127.605V57.3033ZM131.303 58.7388C131.057 58.7388 130.826 58.8033 130.611 58.9322C130.396 59.0611 130.215 59.2427 130.066 59.4771V61.188C130.191 61.3872 130.361 61.5493 130.576 61.6743C130.791 61.7993 131.033 61.8618 131.303 61.8618C131.502 61.8618 131.691 61.8247 131.871 61.7505C132.051 61.6724 132.207 61.565 132.34 61.4283C132.473 61.2876 132.578 61.1236 132.656 60.9361C132.734 60.7447 132.773 60.5376 132.773 60.315C132.773 60.0689 132.734 59.8482 132.656 59.6529C132.582 59.4576 132.478 59.2935 132.346 59.1607C132.213 59.024 132.057 58.9204 131.877 58.8501C131.697 58.7759 131.506 58.7388 131.303 58.7388ZM136.969 60.7193L136.986 60.9009C137.029 61.0767 137.101 61.231 137.203 61.3638C137.308 61.4966 137.432 61.6079 137.572 61.6978C137.713 61.7876 137.869 61.856 138.041 61.9029C138.213 61.9458 138.387 61.9673 138.562 61.9673C138.738 61.9673 138.904 61.9576 139.06 61.938C139.221 61.9146 139.375 61.8853 139.523 61.8501C139.672 61.8111 139.816 61.7681 139.957 61.7212C140.098 61.6704 140.24 61.6177 140.385 61.563L141.029 62.7642C140.807 62.9009 140.601 63.0181 140.414 63.1158C140.23 63.2095 140.045 63.2876 139.857 63.3501C139.67 63.4126 139.471 63.4576 139.26 63.4849C139.049 63.5161 138.803 63.5318 138.521 63.5318C137.994 63.5318 137.525 63.4458 137.115 63.274C136.705 63.0982 136.359 62.8618 136.078 62.565C135.801 62.2681 135.588 61.9204 135.439 61.522C135.295 61.1236 135.223 60.7017 135.223 60.2564C135.223 59.8111 135.299 59.3931 135.451 59.0025C135.607 58.6118 135.826 58.272 136.107 57.9829C136.389 57.69 136.724 57.4595 137.115 57.2915C137.506 57.1236 137.939 57.0396 138.416 57.0396C138.892 57.0396 139.314 57.1197 139.682 57.2798C140.053 57.4361 140.365 57.6548 140.619 57.9361C140.873 58.2134 141.068 58.5415 141.205 58.9204C141.342 59.2954 141.416 59.6997 141.428 60.1333C141.439 60.231 141.445 60.3286 141.445 60.4263C141.449 60.5201 141.447 60.6177 141.439 60.7193H136.969ZM138.369 58.5044C138.15 58.5044 137.963 58.5318 137.807 58.5865C137.654 58.6372 137.525 58.7095 137.42 58.8033C137.314 58.8931 137.23 58.9966 137.168 59.1138C137.105 59.231 137.057 59.354 137.021 59.4829H139.558C139.531 59.3501 139.492 59.2251 139.441 59.1079C139.391 58.9908 139.32 58.8872 139.23 58.7974C139.141 58.7076 139.025 58.6372 138.885 58.5865C138.748 58.5318 138.576 58.5044 138.369 58.5044ZM144.633 57.3033H145.846V58.8384H144.621L144.609 61.4048C144.609 61.5533 144.621 61.6743 144.644 61.7681C144.668 61.8579 144.701 61.9302 144.744 61.9849C144.791 62.0396 144.846 62.0767 144.908 62.0962C144.971 62.1158 145.043 62.1255 145.125 62.1255C145.273 62.1255 145.404 62.1118 145.517 62.0845C145.631 62.0533 145.744 62.0181 145.857 61.979L146.109 63.1099C145.91 63.2349 145.687 63.3345 145.441 63.4087C145.199 63.4829 144.91 63.5201 144.574 63.5201C144.336 63.5201 144.107 63.479 143.889 63.397C143.674 63.315 143.484 63.1919 143.32 63.0279C143.156 62.8599 143.025 62.6509 142.928 62.4009C142.83 62.1509 142.783 61.8599 142.787 61.5279L142.805 58.8384H141.932V57.3033H142.81L142.822 55.8501L144.644 54.9829L144.633 57.3033ZM148.605 60.7193L148.623 60.9009C148.666 61.0767 148.738 61.231 148.84 61.3638C148.945 61.4966 149.068 61.6079 149.209 61.6978C149.349 61.7876 149.506 61.856 149.678 61.9029C149.849 61.9458 150.023 61.9673 150.199 61.9673C150.375 61.9673 150.541 61.9576 150.697 61.938C150.857 61.9146 151.012 61.8853 151.16 61.8501C151.308 61.8111 151.453 61.7681 151.594 61.7212C151.734 61.6704 151.877 61.6177 152.021 61.563L152.666 62.7642C152.443 62.9009 152.238 63.0181 152.051 63.1158C151.867 63.2095 151.682 63.2876 151.494 63.3501C151.307 63.4126 151.107 63.4576 150.896 63.4849C150.685 63.5161 150.439 63.5318 150.158 63.5318C149.631 63.5318 149.162 63.4458 148.752 63.274C148.342 63.0982 147.996 62.8618 147.715 62.565C147.437 62.2681 147.224 61.9204 147.076 61.522C146.932 61.1236 146.859 60.7017 146.859 60.2564C146.859 59.8111 146.935 59.3931 147.088 59.0025C147.244 58.6118 147.463 58.272 147.744 57.9829C148.025 57.69 148.361 57.4595 148.752 57.2915C149.142 57.1236 149.576 57.0396 150.053 57.0396C150.529 57.0396 150.951 57.1197 151.318 57.2798C151.689 57.4361 152.002 57.6548 152.256 57.9361C152.51 58.2134 152.705 58.5415 152.842 58.9204C152.978 59.2954 153.053 59.6997 153.064 60.1333C153.076 60.231 153.082 60.3286 153.082 60.4263C153.086 60.5201 153.084 60.6177 153.076 60.7193H148.605ZM150.006 58.5044C149.787 58.5044 149.599 58.5318 149.443 58.5865C149.291 58.6372 149.162 58.7095 149.057 58.8033C148.951 58.8931 148.867 58.9966 148.805 59.1138C148.742 59.231 148.693 59.354 148.658 59.4829H151.195C151.168 59.3501 151.129 59.2251 151.078 59.1079C151.027 58.9908 150.957 58.8872 150.867 58.7974C150.777 58.7076 150.662 58.6372 150.521 58.5865C150.385 58.5318 150.213 58.5044 150.006 58.5044ZM158.971 59.8814C158.971 59.5415 158.881 59.2759 158.701 59.0845C158.521 58.8892 158.283 58.7915 157.986 58.7915C157.783 58.7915 157.578 58.8365 157.371 58.9263C157.164 59.0161 156.963 59.1841 156.767 59.4302V61.7681H157.752V63.3736H153.978V61.7681H154.869V58.9087H153.99V57.3033H156.756V57.8365C157.01 57.6372 157.293 57.481 157.605 57.3677C157.922 57.2505 158.254 57.1919 158.601 57.1919C159.332 57.1919 159.894 57.397 160.289 57.8072C160.683 58.2134 160.881 58.8091 160.881 59.5943V61.7681H161.742V63.3736H158.971V59.8814ZM167.08 59.4009C166.912 59.19 166.724 59.0318 166.517 58.9263C166.31 58.8169 166.066 58.7701 165.785 58.7857C165.558 58.7701 165.351 58.8013 165.164 58.8794C164.98 58.9576 164.82 59.0669 164.683 59.2076C164.551 59.3482 164.447 59.5161 164.373 59.7115C164.299 59.9029 164.262 60.1197 164.262 60.3618C164.262 60.5767 164.301 60.7798 164.379 60.9712C164.457 61.1626 164.562 61.3286 164.695 61.4693C164.832 61.606 164.992 61.7134 165.176 61.7915C165.363 61.8697 165.566 61.9165 165.785 61.9322C165.969 61.9165 166.135 61.8794 166.283 61.8208C166.435 61.7583 166.57 61.6802 166.687 61.5865C166.805 61.4888 166.904 61.3814 166.986 61.2642C167.072 61.1431 167.139 61.0298 167.185 60.9243L168.797 61.3697C168.73 61.604 168.615 61.8482 168.451 62.1021C168.291 62.356 168.08 62.5884 167.818 62.7993C167.56 63.0064 167.252 63.1783 166.892 63.315C166.537 63.4517 166.131 63.5201 165.674 63.5201C165.209 63.5201 164.781 63.4361 164.391 63.2681C164 63.0962 163.664 62.8638 163.383 62.5708C163.101 62.2779 162.881 61.9341 162.721 61.5396C162.564 61.1451 162.486 60.7212 162.486 60.2681C162.486 59.8189 162.566 59.4029 162.726 59.0201C162.891 58.6333 163.115 58.2974 163.4 58.0122C163.685 57.7232 164.023 57.4986 164.414 57.3384C164.808 57.1783 165.236 57.106 165.697 57.1216C166.025 57.106 166.344 57.1431 166.652 57.2329C166.961 57.3228 167.254 57.4576 167.531 57.6372H168.697V59.4009H167.08ZM171.023 60.7193L171.041 60.9009C171.084 61.0767 171.156 61.231 171.258 61.3638C171.363 61.4966 171.486 61.6079 171.627 61.6978C171.767 61.7876 171.924 61.856 172.096 61.9029C172.267 61.9458 172.441 61.9673 172.617 61.9673C172.793 61.9673 172.959 61.9576 173.115 61.938C173.275 61.9146 173.43 61.8853 173.578 61.8501C173.726 61.8111 173.871 61.7681 174.012 61.7212C174.152 61.6704 174.295 61.6177 174.439 61.563L175.084 62.7642C174.861 62.9009 174.656 63.0181 174.469 63.1158C174.285 63.2095 174.099 63.2876 173.912 63.3501C173.724 63.4126 173.525 63.4576 173.314 63.4849C173.103 63.5161 172.857 63.5318 172.576 63.5318C172.049 63.5318 171.58 63.4458 171.17 63.274C170.76 63.0982 170.414 62.8618 170.133 62.565C169.855 62.2681 169.642 61.9204 169.494 61.522C169.349 61.1236 169.277 60.7017 169.277 60.2564C169.277 59.8111 169.353 59.3931 169.506 59.0025C169.662 58.6118 169.881 58.272 170.162 57.9829C170.443 57.69 170.779 57.4595 171.17 57.2915C171.56 57.1236 171.994 57.0396 172.471 57.0396C172.947 57.0396 173.369 57.1197 173.736 57.2798C174.107 57.4361 174.42 57.6548 174.674 57.9361C174.928 58.2134 175.123 58.5415 175.26 58.9204C175.396 59.2954 175.471 59.6997 175.482 60.1333C175.494 60.231 175.5 60.3286 175.5 60.4263C175.504 60.5201 175.502 60.6177 175.494 60.7193H171.023ZM172.424 58.5044C172.205 58.5044 172.017 58.5318 171.861 58.5865C171.709 58.6372 171.58 58.7095 171.474 58.8033C171.369 58.8931 171.285 58.9966 171.223 59.1138C171.16 59.231 171.111 59.354 171.076 59.4829H173.613C173.586 59.3501 173.547 59.2251 173.496 59.1079C173.445 58.9908 173.375 58.8872 173.285 58.7974C173.195 58.7076 173.08 58.6372 172.939 58.5865C172.803 58.5318 172.631 58.5044 172.424 58.5044Z" fill="#396290"/>
<path d="M34 43.7065L56.9254 50.8719V75.408L34 68.1702V43.7065Z" fill="#396290"/>
<path d="M41.7015 41.1991L63.3731 48.0002V71.2886L41.7015 64.4189V41.1991Z" fill="#1E4571"/>
<path d="M63.3972 48.0014L56.9253 50.7888V75.4081L63.4626 71.2887L63.3972 48.0014Z" fill="#243E5C"/>
<path d="M41.7015 41.1991L34 43.7142V68.3334L41.7015 64.5722V41.1991Z" fill="#2C4C71"/>
<path d="M63.3973 48.0014L41.612 41.1991L34 43.7066L57.0149 50.9603L63.3973 48.0014Z" fill="#243E5C"/>
<g filter="url(#filter0_d)">
<path d="M41.3132 57.6808L49.8135 59.8452V69.1394L41.3132 66.7203V57.6808Z" fill="white"/>
<path d="M49.8135 60.0103L52.9168 58.6173V67.0073L49.8135 69.1394V60.0103Z" fill="#FBFBFB"/>
<path d="M44.4165 56.5239L52.9168 58.6173L49.9237 60.161L41.3132 57.6841L44.4165 56.5239Z" fill="#FBFBFB"/>
<path d="M45.1197 60.4008L44.8344 59.2364L46.0522 59.6476L45.1197 60.4008Z" fill="#072139"/>
<path d="M45.2261 66.8457L44.8213 66.1036L45.6309 66.4409L45.2261 66.8457Z" fill="#072139"/>
<path d="M45.6761 66.4528L44.7806 66.1474V60.0051L45.6761 60.2561V66.4528Z" fill="#072139"/>
</g>
<path d="M42.5275 50.7895L48.4642 52.6245V60.5041L42.5275 58.4533V50.7895Z" fill="#FFE0BD"/>
<path d="M48.4642 52.8404L51.3651 51.2213V58.6692L48.4642 60.5041V52.8404Z" fill="#FED9B0"/>
<path d="M45.5633 49.4403L51.3651 51.3292L48.4642 53.3531L42.5275 50.7895L45.5633 49.4403Z" fill="#FED9B0"/>
<path d="M48.5417 52.2827L51.4074 51.408V55.4316L48.5417 56.4229V52.2827Z" fill="black" fill-opacity="0.75"/>
<path d="M48.5417 51.9666L51.4074 51.408V53.9777L48.9325 54.811L48.5417 51.9666Z" fill="black" fill-opacity="0.91"/>
<path d="M45.7315 49.2588L51.4075 51.394L49.6073 52.6618L45.7315 52.2614L42.2731 50.5933L45.7315 49.2588Z" fill="black"/>
<path d="M45.3259 48.9006L51.4074 50.5468L49.8035 52.1245L45.9187 51.7129L42.4522 49.9981L45.3259 48.9006Z" fill="black"/>
<path d="M44.782 48.9006L51.0493 50.8483L49.2491 52.1245L45.3734 51.7215L41.915 50.0424L44.782 48.9006Z" fill="black"/>
<path d="M45.2213 49.4379L51.5866 51.2189L49.7643 52.4827L45.841 52.0836L42.2731 50.3175L45.2213 49.4379Z" fill="black"/>
<path d="M48.4749 56.4229L49.7955 52.5468L45.1388 51.9453L47.2239 54.0839L48.4749 56.4229Z" fill="black"/>
<path d="M42.2731 55.5274V50.5125L46.0343 52.2986L43.6164 53.1917L42.2731 55.5274Z" fill="black"/>
</g>
<defs>
<filter id="filter0_d" x="41.3132" y="56.5239" width="19.6036" height="20.6155" filterUnits="userSpaceOnUse" color-interpolation-filters="sRGB">
<feFlood flood-opacity="0" result="BackgroundImageFix"/>
<feColorMatrix in="SourceAlpha" type="matrix" values="0 0 0 0 0 0 0 0 0 0 0 0 0 0 0 0 0 0 127 0"/>
<feOffset dx="4" dy="4"/>
<feGaussianBlur stdDeviation="2"/>
<feColorMatrix type="matrix" values="0 0 0 0 0 0 0 0 0 0 0 0 0 0 0 0 0 0 0.18 0"/>
<feBlend mode="normal" in2="BackgroundImageFix" result="effect1_dropShadow"/>
<feBlend mode="normal" in="SourceGraphic" in2="effect1_dropShadow" result="shape"/>
</filter>
</defs>
</svg>
