<svg id="Layer_2" data-name="Layer 2" xmlns="http://www.w3.org/2000/svg" viewBox="0 0 19 19"><defs><style>.cls-1{fill:#38628f;}.cls-2{fill:#1e4571;}.cls-3{fill:#243e5c;}.cls-4{fill:#2b4d72;}.cls-5{fill:#fff;}.cls-6{fill:#fafbfb;}.cls-7{fill:#092138;}.cls-8{fill:#ffdfbc;}.cls-9{fill:#fdd8af;}.cls-10{fill-opacity:0.75;}.cls-11{fill-opacity:0.91;}</style></defs><title>safaArtboard 2</title><path class="cls-1" d="M1.4,1.45,14,5.4V18.93l-12.64-4Z"/><path class="cls-2" d="M5.64.07l12,3.75V16.66L5.64,12.87Z"/><path class="cls-3" d="M17.61,3.82,14,5.36V18.93l3.6-2.27Z"/><path class="cls-4" d="M5.64.07,1.4,1.45V15L5.64,13Z"/><path class="cls-3" d="M17.61,3.82,5.59.07,1.4,1.45l12.69,4Z"/><path class="cls-5" d="M5.43,9.16l4.69,1.19v5.13L5.43,14.14Z"/><path class="cls-6" d="M10.12,10.44l1.71-.77V14.3l-1.71,1.18Z"/><path class="cls-6" d="M7.14,8.52l4.69,1.15-1.65.85L5.43,9.16Z"/><path class="cls-7" d="M7.53,10.66,7.37,10l.67.23Z"/><path class="cls-7" d="M7.59,14.21l-.23-.41.45.19Z"/><path class="cls-7" d="M7.83,14l-.49-.16V10.44l.49.14Z"/><path class="cls-8" d="M6.1,5.36l3.27,1v4.34L6.1,9.58Z"/><path class="cls-9" d="M9.37,6.49l1.6-.9V9.7l-1.6,1Z"/><path class="cls-9" d="M7.77,4.61l3.2,1L9.37,6.77,6.1,5.36Z"/><path class="cls-10" d="M9.41,6.18,11,5.7V7.92l-1.59.54Z"/><path class="cls-11" d="M9.41,6,11,5.7V7.11l-1.37.46Z"/><path d="M7.87,4.51,11,5.69l-1,.7L7.87,6.17,6,5.25Z"/><path d="M7.64,4.31,11,5.22l-.89.87L8,5.87l-1.91-1Z"/><path d="M7.34,4.31,10.8,5.39l-1,.7L7.67,5.87,5.76,4.94Z"/><path d="M7.58,4.61l3.51,1-1,.7L7.93,6.07l-2-1Z"/><path d="M9.38,8.46l.73-2.13L7.54,6,8.69,7.17Z"/><path d="M6,8V5.2L8,6.19,6.7,6.68Z"/></svg>